<?xml version="1.0" ?><svg viewBox="0 0 60 60" xmlns="http://www.w3.org/2000/svg"><defs><style>.a{fill:none;stroke:#1c4db8;stroke-linecap:round;stroke-linejoin:round;stroke-width:1.5px;}.b{fill:#e82e5f;}</style></defs><title/><polyline class="a" points="48.91 28.195 53.39 30.071 30 39.865 6.61 30.071 11.09 28.195"/><line class="a" x1="34.967" x2="25.033" y1="32.151" y2="27.991"/><path class="a" d="M6.61,30.071V47.365a2.306,2.306,0,0,0,1.415,2.127l21.084,8.829a2.3,2.3,0,0,0,1.782,0l21.084-8.829a2.306,2.306,0,0,0,1.415-2.127V30.071"/><line class="a" x1="30" x2="30" y1="39.865" y2="58.5"/><rect class="a" height="22.21" rx="2" transform="translate(-2.601 4.025) rotate(-12.528)" width="16.089" x="8.989" y="2.758"/><path class="a" d="M14.642,18.738s-2.667-8.095,1.472-9.014,5.151,7.543,5.151,7.543"/><path class="a" d="M13.943,15.64c1.84.217,5.657-1.076,6.3-2.49"/><path class="b" d="M44.653,13.969a5.5,5.5,0,0,0-1.706-.3c-.542-.037-1.084-.07-1.626-.1a21.087,21.087,0,0,1-.93,3.238,3.853,3.853,0,0,0,2.276.582,3.425,3.425,0,0,0,2.691-1.1A1.466,1.466,0,0,0,44.653,13.969Z"/><path class="b" d="M44.753,11.853c.163-.037.471-.089.557-.262.312-.629-1.444-1.3-2.517-1.429a3.565,3.565,0,0,0-.835-.054c-.064.235.018-.032-.273,1.565-.024.128-.05.255-.074.383A17.532,17.532,0,0,0,44.753,11.853Z"/><path class="b" d="M51.783,4.421,40.18,1.027a2.5,2.5,0,0,0-3.1,1.7L31.966,20.2a2.505,2.505,0,0,0,1.7,3.1l11.6,3.393a2.5,2.5,0,0,0,3.1-1.7L53.48,7.522A2.5,2.5,0,0,0,51.783,4.421ZM45.219,18.29a5.707,5.707,0,0,1-6.257-.7.74.74,0,0,1-.14-.827,20.573,20.573,0,0,0,1.306-4.889c.138-.745.242-1.505.418-2.242.2-.835.877-1.017,1.646-1.009a5.847,5.847,0,0,1,4.035,1.432,2,2,0,0,1,.5,2.013,1.765,1.765,0,0,1-.8.911,2.8,2.8,0,0,1,1.258,2.429A3.473,3.473,0,0,1,45.219,18.29Z"/></svg>